<svg xmlns="http://www.w3.org/2000/svg" width="116" height="40" fill="none"><path fill="#fff" d="M19.918 0c.495.004.967.008 1.439.016.176.004.35.027.515.094.086.035.184.04.275.05.33.04.66.072.99.119.201.027.394.07.594.101.079.016.161.02.244.036q.459.105.916.224c.134.035.263.074.389.137.098.047.217.055.33.078.044.008.087.012.13.024.338.11.68.22 1.018.341.291.102.575.216.861.33.087.035.173.078.26.113q.773.325 1.517.714c.177.095.362.17.539.267.075.043.142.102.213.153.09.063.184.13.279.189.22.133.444.259.664.392.137.086.263.196.397.282.184.118.338.283.535.381a.35.35 0 0 1 .133.102c.063.094.157.142.248.196.075.047.141.102.208.157.083.067.173.126.256.192.059.047.118.095.165.15a.8.8 0 0 0 .267.231.54.54 0 0 1 .193.173c.047.062.102.106.157.157.122.117.267.208.35.36.016.028.04.048.063.067.133.094.244.212.342.346q.038.054.086.098c.099.09.181.192.272.286.216.22.39.475.601.694.138.145.252.314.374.471l.425.55c.118.152.24.306.35.462.07.102.105.228.192.322.047.051.086.11.126.165q.048.058.086.122c.204.364.401.737.618 1.098.212.35.361.73.542 1.095.086.172.165.353.244.53.098.223.189.45.283.674.098.243.2.487.29.733.076.213.134.433.201.648.028.095.06.193.083.287.098.368.2.737.287 1.11.075.322.13.651.192.977l.095.518q.021.118.04.243c.042.416.093.836.125 1.255.031.381.063.762.075 1.146q.028.715-.032 1.428c-.031.33-.043.663-.083.993-.062.553-.129 1.11-.243 1.655q-.14.672-.303 1.338c-.102.408-.216.813-.358 1.209-.035.098-.047.208-.086.306q-.136.36-.283.718c-.102.255-.209.51-.31.765-.005.004-.005.012-.009.015q-.3.619-.61 1.232-.163.329-.34.648c-.107.184-.225.364-.335.545-.04.063-.079.13-.122.189-.157.23-.318.466-.48.698l-.483.694a5 5 0 0 1-.44.538c-.1.105-.185.22-.276.333-.169.22-.361.416-.546.624q-.282.318-.586.612c-.102.102-.216.189-.322.287-.114.105-.236.208-.339.325-.13.15-.286.263-.436.389q-.112.1-.228.2c-.024.02-.043.05-.066.062-.205.114-.37.283-.551.424-.173.134-.358.255-.527.392-.059.047-.126.079-.189.122l-.538.377c-.051.035-.11.059-.161.094-.13.086-.256.184-.39.262-.16.099-.326.185-.491.275l-.052.024-.636.365c-.043.024-.083.062-.13.075-.188.05-.354.156-.535.231-.121.05-.235.114-.357.172-.067.032-.138.067-.205.095a4 4 0 0 0-.338.16c-.146.083-.314.126-.472.185l-.177.058c-.106.036-.216.067-.322.103l-.393.13c-.035.011-.067.035-.102.042q-.544.155-1.09.302-.607.167-1.226.287c-.452.086-.9.173-1.357.224q-.237.02-.467.043a21 21 0 0 1-2.693.086c-.79-.031-1.58-.098-2.363-.227q-.566-.096-1.132-.197c-.354-.062-.696-.16-1.046-.25a10 10 0 0 1-1.234-.405c-.087-.035-.181-.047-.272-.078a24 24 0 0 1-.739-.28 30 30 0 0 1-.743-.32c-.177-.083-.35-.173-.522-.26-.076-.035-.154-.058-.225-.094a52 52 0 0 1-.695-.373q-.29-.159-.578-.313-.026-.011-.052-.028c-.354-.259-.755-.447-1.093-.733-.098-.087-.216-.146-.326-.22l-.37-.259c-.05-.035-.098-.079-.153-.106a3.5 3.5 0 0 1-.798-.655 3 3 0 0 0-.2-.2c-.13-.118-.264-.232-.393-.35-.067-.059-.126-.121-.19-.18-.019-.016-.03-.04-.05-.055-.19-.145-.338-.333-.511-.494a4 4 0 0 1-.464-.49c-.134-.17-.284-.318-.417-.483-.157-.196-.318-.389-.472-.585s-.303-.4-.452-.6a.4.4 0 0 1-.043-.063c-.118-.22-.287-.412-.429-.616-.062-.094-.114-.196-.173-.29a1 1 0 0 0-.094-.142 1.1 1.1 0 0 1-.189-.301c-.02-.052-.063-.095-.09-.142-.15-.263-.299-.522-.444-.785-.15-.27-.275-.549-.413-.823-.107-.212-.217-.424-.303-.648-.165-.427-.366-.84-.488-1.283-.118-.243-.168-.51-.251-.769-.047-.137-.083-.275-.122-.412a16 16 0 0 1-.189-.706q-.1-.412-.189-.824a19 19 0 0 1-.259-1.675c-.146-1.358-.133-2.719-.047-4.08.02-.287.066-.573.102-.86.032-.235.063-.47.102-.706.063-.377.126-.753.225-1.126.09-.345.165-.694.263-1.04a9 9 0 0 1 .338-1.035c.102-.247.18-.506.287-.757q.314-.753.657-1.499.205-.447.463-.86c.079-.129.142-.266.22-.395.162-.267.33-.53.496-.797.036-.059.055-.126.09-.185.134-.204.264-.411.425-.595.09-.103.161-.225.236-.342q.091-.154.22-.279a1.3 1.3 0 0 0 .212-.235c.087-.134.197-.247.3-.361.01-.016.027-.024.038-.043.118-.204.307-.346.465-.518.11-.122.208-.251.31-.377.145-.18.299-.353.487-.49.103-.075.181-.173.275-.255.09-.079.185-.15.275-.228.087-.075.166-.153.253-.223.149-.126.298-.247.447-.373.229-.189.449-.385.68-.561.264-.2.516-.424.823-.565a.3.3 0 0 0 .062-.04c.09-.133.236-.18.366-.258.02-.012.051-.016.067-.032.2-.188.452-.29.692-.415.338-.18.668-.37 1.01-.542.299-.149.582-.326.893-.444.106-.039.2-.101.302-.152.036-.016.067-.036.103-.047q.27-.108.546-.208.078-.03.161-.051.049-.012.09-.028c.275-.149.57-.223.873-.294q.192-.045.374-.122c.2-.082.405-.13.613-.176.224-.051.448-.118.673-.177.279-.075.562-.141.852-.153.052-.004.102-.004.15-.016.354-.094.72-.117 1.08-.145a1.7 1.7 0 0 0 .445-.086c.138-.051.28-.067.425-.07Q19.224.003 19.917 0Zm8.095 20.857c-.103-.051-.15-.145-.197-.232-.059-.11-.114-.223-.208-.31-.036-.031-.056-.082-.08-.13-.062-.113-.12-.235-.188-.345-.16-.262-.326-.521-.488-.78-.047-.075-.078-.161-.133-.224-.067-.075-.102-.157-.142-.243-.055-.11-.047-.232-.027-.35a.23.23 0 0 1 .133-.172c.114-.047.221-.114.355-.11.117.004.24-.011.357-.027.11-.016.146-.047.15-.157a6 6 0 0 0 0-.546c-.005-.09-.04-.121-.13-.129q-.084-.005-.17-.004l-3.998-.004h-.133c-.118.008-.146.031-.15.146-.003.168 0 .337 0 .505v.02c.013.117.044.153.162.172q.112.019.224.024c.255.004.48.106.664.271.122.106.224.236.323.365.13.176.247.36.361.55.165.282.346.552.52.827.149.24.294.483.448.718.157.243.274.506.471.722q.013.014.02.031c.07.188.196.35.299.522q.27.44.542.879a.3.3 0 0 0 .193.137c.118.032.228.067.346 0 .02-.012.051-.008.075-.008.078.004.129-.039.169-.102.075-.121.157-.243.232-.365q.228-.375.455-.757c.177-.294.35-.592.54-.883.25-.388.483-.792.73-1.185.2-.325.374-.666.598-.976.075-.102.137-.209.224-.302.161-.18.338-.33.586-.393.133-.035.267-.075.405-.078.142-.004.2-.087.244-.196.011-.028.011-.063.011-.095 0-.105.005-.211 0-.321-.008-.17-.075-.24-.244-.244-.145-.004-.29.009-.432.009-.817 0-1.635-.005-2.45-.005q-.064-.002-.129.008c-.047.008-.083.032-.09.082a2.7 2.7 0 0 0-.008.64c.012.083.04.102.126.114.118.012.24.031.357.024.154-.009.284.054.409.117a.3.3 0 0 1 .142.369 1.5 1.5 0 0 1-.181.373q-.166.26-.326.526t-.319.533q-.248.411-.503.816c-.043.063-.067.133-.146.173Zm-9.51-2.645c-.009-.015-.02-.031-.024-.05a3.7 3.7 0 0 1-.016-.695q.011-.113.004-.224c-.004-.106-.031-.137-.13-.145-.086-.004-.177-.004-.263-.004a431 431 0 0 0-2.245-.008q-.065-.001-.13.004c-.086.012-.126.047-.126.134q-.006.292 0 .584c0 .079.036.11.118.122q.132.019.264.02c.15-.005.283.043.42.094.107.039.186.11.244.2a.75.75 0 0 1 .138.325c.015.138.043.275.043.413.004.69 0 1.38.004 2.07q0 .258-.066.503c-.075.286-.256.467-.559.51q-.19.022-.373.04c-.138.011-.162.03-.165.172-.005.149-.005.302-.005.45v.04c.012.15.036.177.177.18h.134c1.152 0 2.3.005 3.452.005q.112.002.224-.008c.126-.012.165-.055.169-.18a8 8 0 0 0 0-.432c-.004-.216-.02-.228-.244-.236-.125-.007-.251-.003-.373-.031-.197-.043-.366-.153-.445-.345a1.7 1.7 0 0 1-.125-.49c-.028-.463-.052-.927.039-1.39.024-.121.024-.25.059-.368.078-.252.204-.483.365-.695l.047-.058c.166-.157.339-.295.543-.4.209-.107.425-.107.641-.13.067-.008.102.039.102.106 0 .098 0 .2-.004.298-.004.27.291.573.559.604a1.6 1.6 0 0 0 .432.008c.185-.024.354-.09.476-.24a.4.4 0 0 1 .066-.066c.162-.118.217-.29.229-.475.007-.169 0-.337-.008-.506a.6.6 0 0 0-.04-.165 1.2 1.2 0 0 0-.389-.541c-.197-.153-.405-.267-.66-.29q-.01.001-.02-.005a1.5 1.5 0 0 0-.582-.015c-.196.031-.393.05-.582.138a2.8 2.8 0 0 0-.868.615 3.4 3.4 0 0 0-.378.467c-.027.047-.059.098-.13.09Zm-5.98-.22c-.075.138-.146.248-.197.37-.079.176-.102.36 0 .54q.03.061.047.123c.04.133.122.223.232.31.13.101.275.152.432.172.225.028.445 0 .634-.133a1.02 1.02 0 0 0 .424-1.115 1.5 1.5 0 0 0-.326-.608.9.9 0 0 0-.303-.247 1.4 1.4 0 0 1-.18-.102 1.7 1.7 0 0 0-.677-.27c-.043-.009-.09-.012-.126-.036-.066-.047-.141-.051-.216-.051-.07-.004-.137-.004-.208-.016a3 3 0 0 0-.81-.027c-.271.031-.554.02-.814.133q-.007.005-.02.004c-.153.051-.318.09-.463.161-.201.098-.413.185-.582.342a.1.1 0 0 1-.032.019c-.125.051-.216.153-.306.247q-.13.136-.252.279c-.04.047-.087.094-.114.149-.153.279-.326.549-.397.867-.051.232-.118.463-.11.702q.006.206 0 .413c-.012.325.082.63.196.933.138.373.358.702.637.989.114.117.24.22.366.321.118.099.26.153.385.236.272.18.586.243.884.357.193.023.386.062.579.07.334.012.668.016.995-.047.074-.015.153-.007.223-.035.24-.094.492-.16.708-.298.063-.04.122-.087.189-.126a1.4 1.4 0 0 0 .393-.318c.22-.255.389-.537.487-.859.012-.035.024-.074.044-.102.047-.066.043-.141.039-.216-.004-.074-.032-.098-.106-.106a2 2 0 0 0-.15-.007l-.42.011c-.032.067-.06.13-.095.189-.078.137-.149.278-.243.4q-.225.294-.563.463a1.24 1.24 0 0 1-.514.153 2.7 2.7 0 0 1-.838-.11.6.6 0 0 1-.138-.058 1.96 1.96 0 0 1-.645-.62 2.5 2.5 0 0 1-.33-.817 5 5 0 0 1-.086-.651c-.02-.427.027-.848.189-1.252.09-.223.212-.423.37-.608a1 1 0 0 1 .212-.184c.168-.11.361-.169.546-.243a.2.2 0 0 1 .075-.008c.188.023.373.023.562.063.18.023.306.121.413.255Z"/></svg>