<svg xmlns="http://www.w3.org/2000/svg" width="29" height="33" fill="none" viewBox="0 0 29 33"><path fill="#faef89" d="M21.835 21.667a7.2 7.2 0 0 1-2.36 1.57 7.3 7.3 0 0 1-2.787.545 7.3 7.3 0 0 1-5.14-2.116 7.2 7.2 0 0 1-2.134-5.1 7.2 7.2 0 0 1 2.132-5.102 7.3 7.3 0 0 1 5.142-2.118 7.3 7.3 0 0 1 2.788.544 7.2 7.2 0 0 1 2.359 1.571l.232.23 6.503-6.449h-7.152L16.688.551l-4.725 4.691H5.277v6.633l-4.73 4.69 4.73 4.688v6.632h6.686l4.725 4.692 4.73-4.692h7.152l-6.503-6.45zm-10.969.217L5.94 26.771v-9.879h2.839a7.8 7.8 0 0 0 2.066 4.992zm-2.088-5.657H5.939v-9.87l4.927 4.886a7.8 7.8 0 0 0-2.093 4.996zm-3.51 0h-3.47l3.47-3.443zM26.973 5.882l-4.919 4.878a7.93 7.93 0 0 0-5.045-2.067V5.882zM16.35 5.229h-3.467l3.467-3.442zm.658-3.442 3.47 3.442h-3.47zM12.09 5.882h4.26v2.816a7.93 7.93 0 0 0-5.032 2.071L6.391 5.882zM1.797 16.879h3.47v3.438zm4.594 10.34 4.927-4.887a7.93 7.93 0 0 0 5.033 2.072v2.816zm10.618.653h3.47l-3.47 3.443zm-.659 3.443-3.466-3.443h3.467zm4.923-4.096H17.01v-2.81a7.93 7.93 0 0 0 5.045-2.064l4.919 4.875z"/></svg>