<svg xmlns="http://www.w3.org/2000/svg" width="36" height="36" fill="none" viewBox="0 0 36 36"><mask id="a" fill="#fff"><path d="M0 .19A.19.19 0 0 1 .19 0h35.62a.19.19 0 0 1 .19.19v35.62a.19.19 0 0 1-.19.19H.19a.19.19 0 0 1-.19-.19z"/></mask><path fill="#84df49" d="M0 .19A.19.19 0 0 1 .19 0h35.62a.19.19 0 0 1 .19.19v35.62a.19.19 0 0 1-.19.19H.19a.19.19 0 0 1-.19-.19z"/><path stroke="#000" stroke-opacity=".06" stroke-width="2" d="M0 .19A.19.19 0 0 1 .19 0h35.62a.19.19 0 0 1 .19.19v35.62a.19.19 0 0 1-.19.19H.19a.19.19 0 0 1-.19-.19z" mask="url(#a)"/><path fill="#000" fill-opacity=".84" d="M10.177 18.635a7.19 7.19 0 0 1 7.187 7.187v1.228a1.95 1.95 0 0 1-3.898 0v-1.228a3.29 3.29 0 0 0-3.12-3.285l-.17-.004H8.95a1.95 1.95 0 0 1 0-3.898zm16.874 0a1.95 1.95 0 0 1 0 3.898h-1.228l-.169.004a3.29 3.29 0 0 0-3.12 3.285v1.228a1.95 1.95 0 0 1-3.898 0v-1.228a7.19 7.19 0 0 1 7.187-7.187zm-8.967-3.002a2.45 2.45 0 1 1-.001 4.901 2.45 2.45 0 0 1 .001-4.901M15.415 7a1.95 1.95 0 0 1 1.95 1.95v1.227a7.19 7.19 0 0 1-7.188 7.187H8.949a1.95 1.95 0 0 1 0-3.898h1.228a3.29 3.29 0 0 0 3.285-3.12l.004-.17V8.95A1.95 1.95 0 0 1 15.415 7m5.17 0a1.95 1.95 0 0 1 1.95 1.95v1.227l.003.169a3.29 3.29 0 0 0 3.285 3.12h1.228a1.95 1.95 0 0 1 0 3.898h-1.228a7.19 7.19 0 0 1-7.187-7.187V8.949A1.95 1.95 0 0 1 20.585 7"/></svg>